# xmcd
#
# Track frame offsets: 
#        150
#        10212
#        21763
#        32577
#        45270
#        58027
#        69146
#        80198
#        89859
#        104086
#        116311
#        128726
#        136521
#        149982
#        157945
#        170938
#        179659
#        189072
#        200669
#        210982
#
# Disc length: 2924 seconds
#
# Revision: 1
# Processed by: cddbd v1.5.2PL0 Copyright (c) Steve Scherf et al.
# Submitted via: ExactAudioCopy v1.3
#
DISCID=1a0b6a14
DTITLE=Hank Thompson and The Brazos Valley Boys - ''Treasures''_Unreleas
DTITLE=ed 1950's Recordings
DYEAR=2008
DGENRE=Country
TTITLE0=You're Too Young To Cry Now
TTITLE1=Harbor Of Love
TTITLE2=Could You Love Me Like You Used To
TTITLE3=Dial L.O.V.E. For Me
TTITLE4=I Know Exactly How You Feel
TTITLE5=Mission Of Love
TTITLE6=Whipporwill Lane
TTITLE7=I Could Love The Devil Out Of You
TTITLE8=Eula Prinsana
TTITLE9=Meet Me On The Corner
TTITLE10=A Fool And His Dreams
TTITLE11=Love Is Where You Find It
TTITLE12=Born To Lose
TTITLE13=Everybody's Crazy
TTITLE14=Desert Jewels
TTITLE15=Somewhere In Between
TTITLE16=Okie Blondie
TTITLE17=My Buddy
TTITLE18=Maple On The Hill
TTITLE19=You Can't Put That Monkey On My Back
EXTD=
EXTT0=
EXTT1=
EXTT2=
EXTT3=
EXTT4=
EXTT5=
EXTT6=
EXTT7=
EXTT8=
EXTT9=
EXTT10=
EXTT11=
EXTT12=
EXTT13=
EXTT14=
EXTT15=
EXTT16=
EXTT17=
EXTT18=
EXTT19=
PLAYORDER=
